<svg width="24" height="24" fill="none" xmlns="http://www.w3.org/2000/svg"><path d="M22.667 11.187a1.48 1.48 0 00-.86-2.667l-6-.227a.153.153 0 01-.134-.1l-2.073-5.6a1.48 1.48 0 00-2.78 0l-2.067 5.62a.153.153 0 01-.133.1l-6 .227a1.48 1.48 0 00-.86 2.667l4.707 3.7a.153.153 0 01.053.16l-1.62 5.74a1.48 1.48 0 002.253 1.633l4.974-3.333a.146.146 0 01.166 0l4.974 3.333a1.467 1.467 0 001.7 0 1.467 1.467 0 00.553-1.6l-1.633-5.76a.147.147 0 01.053-.16l4.727-3.733z" fill="#FFA800" fill-opacity=".8"/></svg>